<svg width="527" height="150" viewBox="0 0 527 150" fill="none" xmlns="http://www.w3.org/2000/svg">
<path d="M175.8 112H192V84.4C192 74.8 198 68.8 205.8 68.8C209.4 68.8 211.2 69.4 211.2 69.4V52H210C198.6 52 192.6 61.6 192.6 61.6H192V53.2H175.8V112Z" fill="black"/>
<path d="M245.414 113.2C261.614 113.2 270.614 103.6 270.614 103.6L262.214 92.2C262.214 92.2 256.814 98.8 246.614 98.8C237.614 98.8 232.814 94 231.014 88.6H273.614C273.614 88.6 274.214 85.6 274.214 81.4C274.214 65.2 261.014 52 244.814 52C228.014 52 214.214 65.8 214.214 82.6C214.214 99.4 228.014 113.2 245.414 113.2ZM231.014 76.6C232.814 71.2 237.614 66.4 244.214 66.4C250.814 66.4 255.614 71.2 257.414 76.6H231.014Z" fill="black"/>
<path d="M303.052 113.2C319.252 113.2 327.652 104.8 327.652 94.6C327.652 75.4 297.652 76.6 297.652 70C297.652 68.2 299.452 66.4 303.652 66.4C312.052 66.4 316.852 71.2 316.852 71.2L326.452 61C326.452 61 318.652 52 303.652 52C288.652 52 280.252 60.4 280.252 70C280.252 89.2 310.252 88 310.252 94.6C310.252 97 308.452 98.8 303.052 98.8C293.452 98.8 287.452 92.2 287.452 92.2L277.852 102.4C277.852 102.4 286.852 113.2 303.052 113.2Z" fill="black"/>
<path d="M363.661 113.2C379.861 113.2 388.861 103.6 388.861 103.6L380.461 92.2C380.461 92.2 375.061 98.8 364.861 98.8C355.861 98.8 351.061 94 349.261 88.6H391.861C391.861 88.6 392.461 85.6 392.461 81.4C392.461 65.2 379.261 52 363.061 52C346.261 52 332.461 65.8 332.461 82.6C332.461 99.4 346.261 113.2 363.661 113.2ZM349.261 76.6C351.061 71.2 355.861 66.4 362.461 66.4C369.061 66.4 373.861 71.2 375.661 76.6H349.261Z" fill="black"/>
<path d="M429.698 113.2C445.898 113.2 454.898 103.6 454.898 103.6L446.498 92.2C446.498 92.2 441.098 98.8 430.898 98.8C421.898 98.8 417.098 94 415.298 88.6H457.898C457.898 88.6 458.498 85.6 458.498 81.4C458.498 65.2 445.298 52 429.098 52C412.298 52 398.498 65.8 398.498 82.6C398.498 99.4 412.298 113.2 429.698 113.2ZM415.298 76.6C417.098 71.2 421.898 66.4 428.498 66.4C435.098 66.4 439.898 71.2 441.698 76.6H415.298Z" fill="black"/>
<path d="M490.936 113.2C503.536 113.2 509.536 103.6 509.536 103.6H510.136V112H526.336V28H510.136V61.6H509.536C509.536 61.6 503.536 52 490.936 52C477.136 52 464.536 64.6 464.536 82.6C464.536 100.6 477.136 113.2 490.936 113.2ZM495.736 98.2C487.336 98.2 480.736 91.6 480.736 82.6C480.736 73.6 487.336 67 495.736 67C504.136 67 510.736 73.6 510.736 82.6C510.736 91.6 504.136 98.2 495.736 98.2Z" fill="black"/>
<g clip-path="url(#clip0_928_28)">
<path fill-rule="evenodd" clip-rule="evenodd" d="M14 75C16.2091 75 18 76.7909 18 79V88.581C18 98.7898 22.9483 112.359 30.672 123.448C38.5203 134.716 48.2006 142 56.8944 142C65.5988 142 75.3321 134.725 83.2305 123.47C91.0054 112.391 96 98.8255 96 88.581V79C96 76.7909 97.7909 75 100 75C102.209 75 104 76.7909 104 79V88.581C104 100.942 98.1851 116.087 89.7789 128.065C81.4961 139.868 69.6767 150 56.8944 150C44.1017 150 32.3348 139.833 24.1074 128.021C15.7556 116.03 10 100.89 10 88.581V79C10 76.7909 11.7909 75 14 75Z" fill="black"/>
<path fill-rule="evenodd" clip-rule="evenodd" d="M67.0891 0.175586C68.3668 -0.215943 69.7556 0.0564303 70.7908 0.901552C73.0703 2.76263 77.5978 6.79174 84.2888 12.899C85.2845 13.8079 85.7555 15.1572 85.5414 16.4883C85.3274 17.8194 84.4572 18.9532 83.2268 19.5041C77.4386 22.0957 73.4759 25.6692 71.0995 30.2345C81.5498 31.6826 90.8982 34.6649 98.0895 38.7932C106.184 43.4398 112.331 50.0454 112.949 58.1774C112.983 58.385 113 58.5981 113 58.8151C113 58.9556 112.999 59.0959 112.998 59.236C112.999 59.3306 113 59.4207 113 59.5044C113 59.5981 112.997 59.6917 112.99 59.7851L112.986 59.8451C112.823 65.8109 111.243 71.4622 108.599 75.7546C105.997 79.9796 101.884 83.5512 96.5862 83.5512C94.5557 83.5512 92.6825 83.0368 90.9992 82.1651C90.0747 84.0507 88.9527 85.757 87.646 87.205C85.1204 90.0036 81.7134 92.0134 77.7069 92.0134C74.0335 92.0134 70.9178 90.3733 68.4505 87.9148C65.7137 92.0083 61.7643 95 56.7586 95C56.6702 95 56.5819 94.999 56.4937 94.9971L56.2942 94.9997C56.2766 94.9999 56.259 95 56.2414 95C51.2357 95 47.2864 92.0083 44.5495 87.9148C42.0822 90.3733 38.9666 92.0134 35.2931 92.0134C31.2866 92.0134 27.8797 90.0036 25.354 87.205C24.0473 85.757 22.9254 84.0507 22.0008 82.1651C20.3176 83.0368 18.4444 83.5512 16.4138 83.5512C11.1139 83.5512 6.99948 79.9764 4.39699 75.7485C1.76459 71.4721 0.188336 65.8478 0.0158606 59.9076C-0.000728805 59.7082 -0.00019141 59.5632 -1.06885e-05 59.5145C4.09342e-06 59.5105 1.64912e-05 59.5071 1.64912e-05 59.5044C1.64912e-05 59.4854 0.000152151 59.4664 0.00042371 59.4474L0.0028501 59.2773C0.000963728 59.1235 1.64912e-05 58.9694 1.64912e-05 58.8151C1.64912e-05 58.6025 0.0169425 58.3916 0.0500403 58.1843C0.706313 49.4962 7.6589 42.5506 16.6595 37.8337C25.2321 33.3411 36.5192 30.362 48.9856 29.5018C50.1056 22.249 51.891 16.1578 54.461 11.3775C57.4528 5.81285 61.6154 1.85293 67.0891 0.175586ZM8.00212 59.3855C8.00536 59.4368 8.0076 59.4882 8.00886 59.5397C8.12652 64.3557 9.40361 68.6208 11.2097 71.5549C13.0712 74.579 15.0265 75.5512 16.4138 75.5512C17.6558 75.5512 19.1823 74.898 20.7385 73.006C21.6959 71.8419 23.2263 71.3149 24.6975 71.6426C26.1686 71.9703 27.3307 73.0971 27.7035 74.5575C28.5159 77.7397 29.8345 80.2289 31.2931 81.8452C32.7412 83.4498 34.1326 84.0134 35.2931 84.0134C37.0724 84.0134 39.5918 82.5456 41.5642 78.3045C42.2603 76.8077 43.8044 75.8923 45.4516 75.9998C47.0989 76.1073 48.5109 77.2156 49.0066 78.7902C50.8866 84.7624 54.0929 86.9856 56.2206 87L56.3602 86.9981L56.3807 86.9975C56.4649 86.995 56.5491 86.9952 56.6332 86.998C56.6749 86.9993 56.7167 87 56.7586 87C58.8861 87 62.1073 84.7819 63.9935 78.7902C64.4891 77.2156 65.9012 76.1073 67.5484 75.9998C69.1956 75.8923 70.7397 76.8077 71.4358 78.3045C73.4083 82.5456 75.9277 84.0134 77.7069 84.0134C78.8674 84.0134 80.2588 83.4498 81.7069 81.8452C83.1655 80.229 84.4842 77.7397 85.2965 74.5575C85.6693 73.0971 86.8314 71.9703 88.3025 71.6426C89.7737 71.3149 91.3041 71.8419 92.2616 73.006C93.8177 74.898 95.3442 75.5512 96.5862 75.5512C97.9729 75.5512 99.9269 74.58 101.788 71.5589C103.593 68.6275 104.871 64.3659 104.991 59.5529C104.992 59.4949 104.995 59.4371 104.999 59.3792C104.999 59.3712 104.999 59.3635 104.998 59.356C104.997 59.3049 104.997 59.2538 104.997 59.2027C104.998 59.1914 104.998 59.1801 104.998 59.1688C104.994 59.1197 104.99 59.0704 104.988 59.0208C104.765 54.6927 101.379 49.9062 94.1067 45.7312C86.9734 41.6363 76.8632 38.6269 65.1592 37.6156C63.975 37.5133 62.8976 36.8896 62.2192 35.9136C61.5407 34.9376 61.3315 33.7105 61.6481 32.5648C63.7181 25.0758 68.1681 19.2223 74.7237 15.0157C71.6307 12.2183 69.2367 10.0897 67.528 8.61538C65.3054 9.80007 63.2761 11.8756 61.5072 15.1658C59.2077 19.443 57.4678 25.5796 56.4685 33.8025C56.2314 35.7533 54.6123 37.243 52.6484 37.3171C39.7688 37.8027 28.4338 40.6952 20.373 44.9196C12.1223 49.2435 8.25076 54.3931 8.01244 59.0211C8.00989 59.0707 8.00645 59.1199 8.00212 59.169C8.00235 59.1875 8.00258 59.2061 8.00284 59.2247C8.00336 59.2621 8.00335 59.2995 8.00281 59.3369L8.00212 59.3855Z" fill="black"/>
</g>
<defs>
<clipPath id="clip0_928_28">
<rect width="113" height="150" fill="white"/>
</clipPath>
</defs>
</svg>
