<?xml version="1.0" standalone="no"?>
<!DOCTYPE svg PUBLIC "-//W3C//DTD SVG 20010904//EN"
 "http://www.w3.org/TR/2001/REC-SVG-20010904/DTD/svg10.dtd">
<svg version="1.0" xmlns="http://www.w3.org/2000/svg"
 width="1200.000000pt" height="1200.000000pt" viewBox="0 0 1200.000000 1200.000000"
 preserveAspectRatio="xMidYMid meet">
<metadata>
Created by potrace 1.14, written by Peter Selinger 2001-2017
</metadata>
<g transform="translate(0.000000,1200.000000) scale(0.100000,-0.100000)"
fill="#000000" stroke="none">
<path d="M6870 11993 c-8 -2 -22 -7 -30 -10 -18 -7 -30 -11 -50 -16 -23 -6
-48 -17 -127 -53 -40 -19 -77 -34 -83 -34 -5 0 -10 -3 -10 -7 0 -5 -18 -17
-40 -27 -119 -57 -382 -291 -478 -424 -9 -14 -27 -36 -38 -51 -41 -50 -132
-196 -175 -281 -24 -47 -47 -86 -51 -88 -5 -2 -8 -11 -8 -21 0 -9 -4 -21 -9
-26 -8 -9 -105 -233 -106 -245 0 -4 -33 -98 -53 -150 -3 -8 -6 -17 -7 -20 0
-3 -10 -36 -22 -75 -27 -87 -84 -293 -88 -320 -2 -11 -6 -31 -9 -45 -11 -47
-36 -165 -40 -190 -3 -14 -7 -34 -9 -45 -3 -11 -8 -40 -12 -65 -4 -25 -9 -54
-11 -65 -2 -11 -6 -35 -8 -54 -3 -18 -6 -35 -9 -37 -4 -4 -62 -11 -172 -19
-38 -3 -90 -8 -115 -11 -25 -2 -65 -6 -90 -8 -25 -2 -110 -14 -190 -25 -80
-12 -161 -24 -180 -26 -19 -3 -42 -8 -50 -10 -8 -3 -31 -7 -50 -9 -19 -3 -56
-9 -82 -14 -27 -5 -48 -7 -48 -4 0 2 -7 -1 -15 -8 -8 -7 -15 -10 -15 -7 0 2
-28 -2 -62 -10 -35 -7 -76 -16 -93 -19 -16 -3 -57 -12 -90 -21 -33 -8 -67 -16
-75 -18 -14 -3 -204 -53 -225 -59 -5 -2 -23 -6 -40 -11 -141 -36 -559 -188
-725 -262 -72 -32 -365 -178 -370 -184 -6 -7 -82 -52 -120 -71 -38 -20 -285
-190 -288 -199 -2 -5 -8 -9 -14 -9 -5 0 -15 -6 -22 -12 -7 -7 -35 -31 -62 -53
-104 -86 -224 -202 -294 -284 -25 -29 -55 -65 -68 -80 -138 -160 -290 -468
-328 -666 -2 -11 -6 -31 -9 -45 -16 -79 -20 -129 -20 -255 0 -121 4 -180 20
-340 2 -16 6 -43 9 -60 3 -16 8 -48 11 -70 4 -22 18 -85 31 -140 13 -55 27
-110 29 -122 3 -12 10 -35 16 -50 6 -16 13 -38 15 -50 10 -54 157 -390 187
-428 6 -8 33 -48 122 -182 18 -27 79 -95 145 -162 69 -70 83 -82 161 -138 42
-29 49 -40 49 -67 0 -17 0 -40 0 -51 0 -11 0 -42 0 -69 0 -28 2 -52 4 -54 2
-2 0 -17 -4 -33 -5 -16 -5 -29 0 -29 5 0 5 -12 1 -27 -7 -30 -6 -91 3 -100 2
-3 1 -16 -4 -29 -6 -16 -6 -24 1 -24 6 0 6 -6 0 -18 -5 -10 -6 -24 -1 -31 4
-8 5 -25 1 -40 -4 -14 -6 -37 -4 -51 1 -14 5 -72 8 -130 3 -58 7 -123 9 -145
2 -22 7 -71 11 -110 4 -38 9 -79 11 -90 3 -11 7 -38 10 -60 3 -22 7 -50 10
-62 12 -65 25 -139 25 -148 0 -2 4 -19 9 -36 5 -18 12 -50 16 -73 3 -22 9 -47
13 -56 5 -8 11 -31 15 -50 11 -60 14 -72 46 -180 18 -58 33 -112 35 -120 5
-26 101 -301 134 -385 17 -44 31 -83 31 -86 0 -4 10 -28 22 -55 12 -27 23 -51
23 -54 1 -3 11 -27 23 -53 12 -27 22 -50 22 -52 0 -2 22 -50 48 -107 107 -226
207 -423 231 -452 8 -9 10 -16 7 -16 -4 0 2 -13 13 -29 12 -16 21 -34 21 -40
0 -6 5 -11 10 -11 6 0 10 -5 10 -10 0 -6 18 -40 40 -76 22 -36 40 -70 40 -75
0 -5 5 -9 10 -9 6 0 10 -5 10 -11 0 -6 13 -30 30 -54 17 -24 30 -48 30 -54 0
-6 5 -11 10 -11 6 0 10 -7 10 -15 0 -8 5 -15 10 -15 6 0 10 -7 10 -15 0 -8 5
-15 10 -15 6 0 10 -7 10 -15 0 -8 5 -15 12 -15 6 0 9 -3 5 -6 -3 -4 -1 -12 6
-19 7 -7 18 -21 25 -31 7 -11 40 -59 75 -108 34 -48 67 -95 72 -105 6 -9 12
-18 16 -21 3 -3 18 -23 35 -45 16 -22 36 -49 46 -60 9 -11 39 -49 68 -85 28
-36 63 -79 78 -95 15 -17 40 -46 56 -65 41 -51 254 -277 305 -324 24 -23 61
-57 81 -76 96 -89 120 -111 201 -176 129 -104 157 -125 228 -174 36 -25 72
-51 79 -57 7 -7 19 -13 27 -13 7 0 15 -4 17 -8 3 -9 99 -68 183 -114 84 -47
226 -113 315 -147 47 -19 94 -37 105 -42 39 -15 151 -48 216 -63 171 -39 280
-51 479 -51 168 0 255 8 390 36 25 5 58 12 73 15 15 3 65 17 110 31 45 14 88
25 95 26 6 0 12 4 12 9 0 4 3 7 8 6 10 -3 49 10 99 33 23 10 48 20 55 21 28 6
339 169 418 219 114 73 284 194 343 244 7 6 39 32 72 60 112 93 130 110 305
285 150 151 197 200 272 289 7 8 30 35 51 60 55 64 65 77 126 156 30 39 58 71
63 73 4 2 8 8 8 13 0 6 5 15 10 22 6 7 29 37 51 67 22 30 47 63 55 73 7 9 14
21 14 26 0 5 3 11 8 13 6 3 50 67 166 244 25 40 46 77 46 83 0 6 5 11 10 11 6
0 10 4 10 9 0 5 22 46 50 91 27 45 50 84 50 87 0 3 9 18 21 34 11 16 17 29 12
29 -4 0 -3 4 2 8 13 9 18 19 113 204 88 173 158 324 173 373 1 6 9 16 16 23 7
7 13 20 13 28 0 8 4 22 9 32 12 23 65 151 67 162 0 3 5 16 11 30 18 40 57 144
59 155 1 6 14 44 29 85 14 41 28 82 30 90 2 8 4 15 5 15 1 0 3 7 5 15 2 8 15
56 30 105 29 96 55 191 60 215 2 8 8 35 15 60 7 25 14 56 16 70 2 14 7 36 10
50 3 14 8 34 10 45 2 11 6 31 9 45 14 66 39 228 50 325 12 97 14 131 20 253 3
68 7 127 9 131 3 4 1 13 -4 21 -4 7 -5 23 0 35 5 12 5 27 1 34 -5 7 -5 30 -1
51 4 21 4 44 -1 51 -4 7 -3 21 2 30 6 11 5 20 -1 24 -7 4 -7 13 0 24 6 12 5
22 -2 29 -6 6 -7 16 -2 24 12 17 12 30 2 50 -5 10 -4 19 2 23 8 5 8 11 0 20
-8 10 -8 19 0 35 8 14 8 25 1 33 -6 8 -6 18 -1 27 5 9 5 19 -2 27 -7 9 -7 13
1 13 8 0 9 5 3 16 -15 26 -2 72 26 90 47 31 242 236 242 254 0 5 6 13 13 17 6
4 17 17 24 28 139 230 147 245 196 355 9 19 17 42 19 50 2 8 6 17 9 20 5 4 61
161 75 210 4 13 48 196 59 241 5 23 16 89 20 119 2 14 6 45 9 70 15 102 17
132 21 295 2 94 -1 193 -6 220 -5 28 -12 64 -15 80 -11 64 -45 185 -64 229
-10 25 -18 46 -16 46 7 0 -122 249 -134 260 -3 3 -23 32 -45 65 -42 64 -41 62
-136 175 -70 81 -283 291 -305 298 -5 2 -29 20 -53 40 -24 20 -51 41 -60 46
-9 5 -18 12 -21 16 -8 11 -240 164 -305 201 -123 70 -143 80 -260 137 -166 82
-313 146 -324 142 -2 -1 -7 2 -10 7 -7 9 -36 20 -261 99 -85 30 -156 55 -157
55 -2 1 -7 3 -13 4 -5 1 -11 3 -12 5 -2 1 -10 3 -18 5 -8 1 -55 15 -105 30
-49 15 -97 29 -105 30 -8 1 -22 4 -30 7 -18 7 -207 54 -270 67 -25 5 -56 12
-70 15 -14 3 -47 10 -75 16 -27 5 -63 12 -80 15 -16 4 -39 8 -50 10 -11 2 -33
6 -50 9 -16 4 -46 9 -65 12 -19 3 -48 8 -65 10 -47 8 -97 15 -128 19 -15 1
-30 5 -32 7 -6 6 92 171 117 198 10 10 18 23 18 27 0 4 16 25 35 46 19 21 35
41 35 43 0 10 199 204 209 204 5 0 14 6 18 13 4 6 31 29 58 49 28 21 55 41 60
45 9 7 88 58 175 112 50 31 210 109 210 103 0 -4 4 -2 8 3 4 6 24 19 44 29
149 76 206 275 124 433 -17 34 -79 98 -185 193 -40 36 -90 81 -111 100 -60 56
-201 183 -249 226 -79 69 -112 98 -154 137 -67 61 -85 77 -217 192 -69 59
-139 120 -156 135 -50 44 -116 91 -154 107 -34 15 -160 26 -190 16z m51 -716
c20 -17 64 -57 99 -87 96 -84 150 -132 188 -167 18 -18 35 -33 37 -33 2 0 21
-17 42 -37 22 -21 67 -62 101 -92 34 -30 62 -58 62 -62 0 -4 -15 -17 -33 -28
-86 -53 -297 -220 -297 -234 0 -6 -2 -8 -5 -5 -11 11 -215 -206 -307 -328 -64
-84 -168 -246 -168 -261 0 -7 -4 -13 -8 -13 -4 0 -16 -17 -26 -37 -70 -149
-118 -266 -155 -378 -60 -187 -60 -185 -53 -185 4 0 8 -24 8 -53 2 -61 31
-129 77 -180 36 -39 108 -87 132 -87 8 0 15 -3 15 -7 0 -5 10 -8 23 -9 33 -1
157 -13 197 -19 19 -2 60 -7 90 -10 30 -4 67 -8 81 -10 26 -5 52 -8 144 -20
28 -3 57 -8 65 -10 8 -3 33 -7 55 -10 22 -3 74 -12 115 -21 41 -8 86 -16 100
-19 92 -17 154 -31 295 -66 88 -22 179 -46 202 -54 23 -8 52 -16 65 -19 35 -7
211 -65 230 -76 10 -6 23 -10 29 -10 12 0 257 -95 336 -130 166 -75 473 -242
481 -262 2 -4 8 -8 13 -8 14 0 169 -110 202 -142 10 -10 21 -18 26 -18 9 0
222 -208 264 -257 15 -18 27 -37 27 -42 0 -5 4 -11 8 -13 18 -7 139 -208 125
-208 -3 0 -1 -6 4 -12 23 -30 60 -156 67 -229 3 -25 6 -49 7 -55 1 -5 0 -11
-1 -14 -1 -3 -3 -43 -5 -90 -19 -468 -199 -920 -445 -1121 -64 -52 -152 -93
-186 -86 -13 2 -24 1 -24 -4 0 -18 -127 16 -190 50 -25 13 -86 66 -137 117
-50 51 -107 101 -125 110 -125 65 -271 46 -367 -46 -63 -60 -92 -111 -107
-189 -20 -102 -165 -425 -196 -439 -5 -2 -8 -8 -8 -13 0 -11 -23 -40 -72 -92
-21 -21 -38 -43 -38 -48 0 -5 -4 -9 -9 -9 -6 0 -21 -10 -35 -23 -14 -13 -42
-32 -63 -43 -21 -10 -44 -23 -51 -28 -21 -15 -51 -20 -127 -19 -79 0 -83 1
-145 30 -60 29 -82 46 -158 123 -62 64 -155 201 -189 280 -10 22 -21 40 -25
40 -5 0 -8 6 -8 14 0 39 -133 131 -202 140 -18 2 -37 5 -43 6 -5 1 -12 2 -15
1 -3 -1 -24 -4 -46 -5 -50 -4 -139 -44 -177 -81 -43 -41 -74 -94 -97 -165 -11
-36 -25 -74 -30 -85 -5 -11 -18 -42 -30 -70 -11 -27 -25 -58 -31 -69 -6 -10
-19 -34 -30 -52 -37 -67 -75 -120 -119 -168 -43 -47 -54 -57 -103 -99 -11 -10
-50 -32 -86 -50 -60 -29 -74 -32 -161 -32 -90 0 -101 2 -166 35 -38 19 -76 42
-86 50 -9 8 -23 20 -30 26 -77 65 -177 205 -235 332 -46 102 -49 109 -67 162
-42 128 -85 187 -171 232 -42 22 -150 49 -160 40 -3 -3 -20 -6 -39 -8 -50 -3
-135 -46 -177 -88 -20 -20 -56 -74 -79 -119 -58 -115 -83 -154 -122 -198 -10
-10 -18 -22 -18 -26 0 -20 -139 -134 -198 -164 -59 -30 -76 -34 -147 -34 -71
0 -88 4 -150 34 -48 24 -92 57 -142 107 -40 40 -73 75 -73 78 0 3 -15 26 -34
51 -49 64 -127 224 -166 340 -19 55 -34 102 -35 105 -5 37 -33 105 -60 142
-83 114 -228 161 -360 116 -67 -22 -64 -20 -169 -124 -161 -160 -274 -206
-396 -159 -25 9 -53 19 -64 21 -10 2 -27 11 -37 20 -11 10 -19 14 -19 10 0 -4
-6 -1 -14 6 -81 75 -132 131 -163 177 -21 31 -41 58 -44 61 -26 22 -158 328
-173 402 -3 13 -13 50 -22 83 -9 33 -17 69 -19 80 -2 19 -7 44 -20 120 -7 35
-14 105 -19 190 -2 33 -5 65 -6 70 -1 6 -2 12 -1 15 2 3 4 30 6 60 4 70 12
122 25 154 5 14 7 26 5 26 -3 0 4 19 16 43 12 23 21 42 21 42 -1 0 1 10 4 23
4 12 10 22 15 22 5 0 8 3 7 8 -2 7 37 87 53 106 5 6 34 45 65 86 82 109 258
279 363 349 20 14 38 27 41 31 7 9 125 85 221 143 79 47 275 148 364 187 28
12 64 28 80 36 69 31 268 105 375 139 63 21 122 40 130 43 8 3 21 6 29 8 8 1
35 10 62 18 51 17 343 91 424 107 58 12 71 14 185 35 47 9 94 18 105 20 11 2
38 6 60 9 22 4 49 8 60 10 43 7 140 19 148 17 4 -1 7 1 7 5 0 5 21 8 48 7 26
0 63 3 82 7 43 9 193 21 277 23 35 0 63 3 63 6 0 3 37 6 83 8 200 6 261 19
330 72 79 61 117 142 133 280 3 25 12 88 20 140 8 52 17 111 20 130 2 19 7 44
9 56 3 12 7 39 10 60 4 21 10 53 15 69 4 17 11 46 14 65 3 19 9 46 12 60 3 14
7 34 9 45 3 11 9 38 15 60 6 22 13 49 15 60 3 11 16 58 30 105 14 47 27 90 28
95 8 29 40 124 52 150 7 17 16 41 20 55 16 56 144 323 157 328 5 2 8 8 8 14 0
6 11 26 25 43 13 18 21 35 18 39 -4 3 -2 6 4 6 5 0 25 24 43 53 39 60 235 257
256 257 8 0 14 5 14 10 0 6 7 10 15 10 8 0 15 3 15 8 0 6 34 27 50 31 3 0 21
-14 41 -32z m-3669 -5872 c1 -5 14 -32 30 -58 15 -26 28 -52 28 -57 0 -6 5
-10 10 -10 6 0 10 -5 10 -11 0 -12 60 -103 72 -107 4 -2 8 -10 8 -17 0 -7 3
-15 8 -17 4 -1 23 -23 42 -48 40 -50 153 -164 196 -197 99 -75 140 -103 158
-109 12 -4 23 -10 26 -13 3 -4 37 -21 75 -38 86 -39 213 -72 295 -78 34 -2 64
-6 67 -9 3 -3 14 -1 24 4 12 7 20 7 24 0 4 -6 11 -7 17 -4 6 4 36 9 67 10 31
2 67 6 81 9 56 12 165 50 172 60 4 5 8 6 8 1 0 -5 7 -3 15 4 8 7 15 10 15 6 0
-19 213 120 282 185 29 27 56 49 59 49 4 0 31 -33 61 -72 93 -123 147 -177
285 -288 44 -36 188 -117 223 -125 3 -1 19 -7 35 -14 17 -7 37 -14 45 -16 8
-2 15 -4 15 -5 0 -2 22 -7 60 -15 17 -3 39 -8 49 -12 11 -3 51 -7 89 -9 38 -1
71 -5 74 -7 2 -3 18 -1 34 3 18 5 29 5 29 -1 0 -6 4 -8 9 -5 4 3 35 8 67 11
106 11 227 46 332 97 56 27 108 55 115 61 6 7 31 25 54 41 82 55 203 181 319
332 19 24 24 26 37 13 49 -48 143 -119 232 -175 83 -52 236 -108 330 -121 113
-15 195 -21 195 -13 0 3 21 6 48 6 62 2 123 12 172 29 22 8 41 14 43 14 3 0
68 24 97 37 3 1 15 5 28 9 12 4 22 11 22 16 0 5 4 8 10 6 19 -5 198 125 275
201 83 82 109 110 136 152 10 14 26 35 38 47 12 12 21 24 21 27 0 2 19 33 43
69 23 36 53 88 67 116 27 54 37 59 78 37 40 -20 71 -33 130 -51 55 -17 61 -19
152 -30 30 -4 59 -9 64 -12 11 -7 -2 -728 -14 -728 -1 0 -3 -16 -5 -35 -6 -74
-10 -90 -19 -90 -6 0 -5 -5 1 -11 8 -8 9 -20 2 -36 -5 -14 -11 -40 -13 -57 -3
-17 -7 -43 -10 -56 -3 -14 -8 -36 -11 -50 -6 -32 -44 -200 -50 -222 -3 -10 -7
-26 -10 -35 -2 -10 -11 -43 -20 -73 -9 -30 -18 -62 -20 -70 -2 -8 -4 -16 -5
-17 -2 -2 -3 -6 -4 -10 -11 -44 -40 -131 -48 -140 -6 -7 -8 -13 -4 -13 3 0 -1
-17 -10 -37 -9 -21 -17 -45 -19 -53 -2 -8 -4 -15 -5 -15 -1 0 -3 -7 -5 -15 -6
-32 -123 -313 -180 -435 -109 -232 -193 -395 -278 -539 -23 -39 -46 -79 -52
-88 -43 -73 -107 -176 -120 -193 -8 -11 -34 -49 -58 -85 -23 -36 -46 -70 -52
-77 -5 -6 -26 -35 -45 -63 -29 -43 -68 -93 -202 -265 -141 -181 -455 -503
-597 -613 -12 -9 -36 -30 -54 -45 -18 -15 -44 -35 -59 -44 -16 -10 -28 -21
-28 -26 0 -4 -4 -5 -10 -2 -5 3 -10 2 -10 -3 0 -6 -24 -25 -52 -43 -29 -18
-55 -36 -58 -40 -23 -27 -288 -171 -411 -222 -129 -53 -341 -112 -419 -116
-61 -2 -120 -10 -129 -15 -6 -4 -11 -3 -11 3 0 7 -8 7 -24 1 -13 -5 -26 -7
-29 -4 -3 3 -38 7 -78 10 -79 6 -114 10 -114 14 0 1 -13 3 -30 4 -41 4 -198
47 -209 57 -6 5 -18 9 -28 9 -18 0 -46 11 -153 61 -27 12 -52 23 -55 24 -17 5
-68 31 -82 43 -10 9 -18 12 -18 8 0 -4 -6 -2 -12 4 -11 9 -49 33 -147 91 -14
8 -34 22 -45 32 -11 9 -26 17 -33 17 -7 0 -13 3 -13 8 0 4 -18 18 -40 32 -22
14 -40 28 -40 32 0 5 -5 8 -11 8 -6 0 -16 6 -23 13 -7 6 -27 23 -45 37 -109
83 -379 339 -471 446 -110 128 -156 179 -162 182 -5 2 -8 8 -8 14 0 6 -8 18
-18 27 -10 9 -65 79 -122 156 -57 77 -109 143 -114 147 -6 4 -7 8 -3 8 9 0
-43 73 -55 78 -5 2 -8 8 -8 12 0 8 -27 51 -148 240 -9 14 -17 27 -17 30 0 3
-10 19 -22 36 -12 17 -27 42 -33 55 -6 13 -24 47 -40 74 -17 28 -33 57 -37 65
-3 8 -12 22 -19 30 -7 8 -13 18 -14 22 0 4 -38 83 -83 175 -69 141 -111 235
-198 441 -16 39 -27 66 -48 122 -26 71 -82 231 -87 250 -2 8 -13 47 -25 85
-24 79 -86 316 -93 354 -3 14 -7 37 -10 51 -14 61 -26 128 -31 165 -3 22 -8
51 -10 65 -4 30 -13 99 -21 155 -2 22 -7 81 -9 130 -2 50 -5 92 -6 95 -1 3 -1
9 0 14 1 5 2 30 2 55 -1 25 -1 82 -1 126 0 44 0 125 0 181 -1 75 3 101 12 102
13 0 60 9 88 15 41 9 113 35 180 65 29 13 51 11 52 -3z"/>
</g>
</svg>
